<svg width="303" height="67" viewBox="0 0 303 67" fill="none" xmlns="http://www.w3.org/2000/svg">
<path d="M6.72 42.344H39.648L40.8 38.792H11.424C10.4 38.792 9.696 38.344 9.312 37.448C8.992 36.488 8.928 35.688 9.12 35.048L14.784 17.672C15.168 16.648 15.744 15.816 16.512 15.176C17.28 14.536 18.112 14.12 19.008 13.928H58.176L54.72 24.584H21.696L20.544 28.232H50.976C51.232 28.232 51.456 28.392 51.648 28.712C51.84 28.968 52 29.288 52.128 29.672C52.256 30.056 52.32 30.472 52.32 30.92C52.384 31.304 52.384 31.624 52.32 31.88L46.56 49.64C46.304 50.344 45.76 51.08 44.928 51.848C44.16 52.616 43.488 53 42.912 53H3.264L6.72 42.344ZM77.5523 24.584H61.1363L64.5923 13.928H106.832L103.376 24.584H86.8643L77.6483 53H68.3363L77.5523 24.584ZM124.667 53L123.803 46.088H106.715L101.627 53H91.4513L120.827 13.928H130.715L134.747 53H124.667ZM121.883 26.024L114.683 35.528H122.843L121.883 26.024ZM152.624 13.928H194.864L191.408 24.584H158.384L156.08 31.784H186.992L183.536 42.344H152.624L149.168 53H139.952L152.624 13.928Z" fill="white"/>
<path d="M192.6 56.64H202.48L203 55.08H197.48L198.92 50.68H207.24C207.347 50.68 207.44 50.7467 207.52 50.88C207.6 50.9867 207.667 51.12 207.72 51.28C207.773 51.44 207.8 51.6133 207.8 51.8C207.827 51.96 207.827 52.0933 207.8 52.2L205.4 59.68C205.293 59.9733 205.067 60.2667 204.72 60.56C204.4 60.8267 204.133 60.9733 203.92 61H188.4C188.213 61 188.027 60.88 187.84 60.64C187.653 60.4 187.627 60.0933 187.76 59.72L192.24 46C192.347 45.7067 192.547 45.4267 192.84 45.16C193.16 44.8667 193.44 44.72 193.68 44.72H210.24L208.8 49.16H195.04L192.6 56.64ZM230.113 46L225.233 61H221.353L222.793 56.56H212.913L211.473 61H207.633L212.513 46C212.593 45.76 212.78 45.4933 213.073 45.2C213.367 44.88 213.633 44.72 213.873 44.72H229.513C229.753 44.72 229.94 44.8667 230.073 45.16C230.207 45.4267 230.22 45.7067 230.113 46ZM214.353 52.16H224.233L225.193 49.16H215.313L214.353 52.16ZM248.947 49.92L240.707 61H236.387L235.347 49.92L231.747 61H227.907L233.187 44.72H239.107L240.067 56.28L248.547 44.72H254.467L249.187 61H245.347L248.947 49.92ZM257.171 44.72H261.051L255.771 61H251.891L257.171 44.72ZM263.773 44.72H267.453L274.653 54.84L277.933 44.72H281.853L276.573 61H272.893L265.613 50.88L262.333 61H258.493L263.773 44.72ZM284.475 56.64H294.355L294.875 55.08H289.355L290.795 50.68H299.115C299.222 50.68 299.315 50.7467 299.395 50.88C299.475 50.9867 299.542 51.12 299.595 51.28C299.648 51.44 299.675 51.6133 299.675 51.8C299.702 51.96 299.702 52.0933 299.675 52.2L297.275 59.68C297.168 59.9733 296.942 60.2667 296.595 60.56C296.275 60.8267 296.008 60.9733 295.795 61H280.275C280.088 61 279.902 60.88 279.715 60.64C279.528 60.4 279.502 60.0933 279.635 59.72L284.115 46C284.222 45.7067 284.422 45.4267 284.715 45.16C285.035 44.8667 285.315 44.72 285.555 44.72H302.115L300.675 49.16H286.915L284.475 56.64Z" fill="white"/>
</svg>
